<?xml version="1.0" standalone="no"?>
<!DOCTYPE svg PUBLIC "-//W3C//DTD SVG 20010904//EN"
 "http://www.w3.org/TR/2001/REC-SVG-20010904/DTD/svg10.dtd">
<svg version="1.0" xmlns="http://www.w3.org/2000/svg"
 width="2250.000000pt" height="2250.000000pt" viewBox="0 0 2250.000000 2250.000000"
 preserveAspectRatio="xMidYMid meet">

<g transform="translate(0.000000,2250.000000) scale(0.100000,-0.100000)"
fill="#000000" stroke="none">
<path d="M11367 16248 c-50 -47 -75 -132 -59 -196 16 -60 70 -112 117 -112
125 0 193 214 100 314 -20 21 -33 26 -74 26 -42 0 -55 -5 -84 -32z m133 -72
c0 -3 -4 -8 -10 -11 -5 -3 -10 -1 -10 4 0 6 5 11 10 11 6 0 10 -2 10 -4z m-40
-35 c0 -17 -18 -21 -24 -6 -3 9 0 15 9 15 8 0 15 -4 15 -9z"/>
<path d="M11775 16123 c-62 -32 -92 -75 -106 -147 -9 -53 6 -100 42 -130 109
-92 284 99 214 234 -30 58 -89 76 -150 43z"/>
<path d="M11032 16078 c-12 -6 -32 -27 -44 -46 -28 -46 -31 -165 -5 -206 23
-35 74 -66 109 -66 36 0 91 49 105 94 22 72 -23 192 -83 221 -37 17 -50 18
-82 3z m88 -65 c13 -27 29 -52 36 -58 6 -5 14 -35 17 -65 5 -45 3 -59 -13 -77
-10 -13 -25 -23 -34 -23 -8 0 -17 -4 -21 -9 -8 -14 -65 5 -80 26 -9 12 -10 22
-3 30 6 8 6 18 0 30 -6 10 -13 39 -17 64 -5 35 -3 48 9 58 9 8 16 24 16 36 0
24 11 33 46 34 15 1 27 -12 44 -46z"/>
<path d="M11379 15791 c-20 -10 -56 -32 -80 -50 -24 -17 -69 -49 -100 -69
-163 -110 -189 -141 -189 -222 0 -96 70 -144 253 -170 51 -8 95 -24 178 -67
91 -48 119 -58 172 -61 57 -4 66 -2 96 24 40 34 61 79 61 134 0 39 -91 325
-123 386 -17 33 -71 86 -104 103 -33 17 -123 13 -164 -8z"/>
<path d="M11986 15759 c-79 -22 -143 -98 -147 -175 -5 -76 28 -101 121 -92 90
9 150 75 150 166 0 78 -53 120 -124 101z m-106 -175 c0 -8 -4 -12 -10 -9 -5 3
-10 13 -10 21 0 8 5 12 10 9 6 -3 10 -13 10 -21z"/>
<path d="M11193 12462 c-14 -9 -16 -272 -14 -1877 1 -992 -1 -1231 -11 -1233
-7 -1 -37 38 -66 87 -413 709 -1101 1194 -2002 1415 -363 89 -641 116 -1175
116 -601 0 -1127 -42 -1955 -155 -633 -86 -1034 -136 -1285 -160 -959 -90
-1576 -78 -2060 40 -105 26 -254 72 -316 99 -64 27 -64 32 9 133 196 269 344
470 421 568 48 61 104 135 126 165 22 30 68 91 103 134 57 72 112 158 83 130
-7 -6 -23 -9 -37 -6 -17 3 -24 11 -24 29 0 21 2 22 22 12 18 -10 20 -9 15 6
-4 9 -7 19 -7 21 0 2 -6 4 -13 4 -8 0 -32 -21 -54 -47 -82 -98 -816 -1069
-845 -1119 -27 -46 -23 -50 130 -109 68 -26 126 -53 129 -61 3 -8 -23 -60 -58
-116 -34 -57 -94 -155 -132 -218 -63 -103 -289 -548 -636 -1252 -104 -212
-132 -278 -118 -278 2 0 52 9 113 21 60 11 143 27 184 34 41 8 188 35 325 60
250 46 1606 274 1870 315 785 120 1520 216 2065 270 433 43 513 50 785 70 714
51 1263 49 1855 -6 425 -39 999 -153 1335 -265 161 -54 322 -112 368 -134 29
-13 91 -41 138 -63 97 -44 220 -114 244 -138 15 -16 20 -13 68 33 84 81 99 93
160 129 110 65 166 79 312 79 111 -1 138 -4 186 -23 81 -32 173 -94 243 -164
59 -60 60 -60 85 -44 164 105 650 299 966 385 489 132 906 196 1525 232 212
13 976 6 1230 -10 333 -22 473 -32 615 -46 353 -35 455 -46 535 -55 47 -5 153
-17 235 -25 231 -24 1139 -148 1510 -206 72 -11 204 -31 295 -45 422 -66 1164
-188 1440 -238 184 -34 552 -102 680 -126 154 -29 242 -41 248 -36 10 11 -33
102 -384 815 -235 474 -295 586 -464 862 -84 136 -110 183 -110 197 0 6 57 29
128 52 138 46 162 56 162 69 0 15 -327 455 -694 936 -135 176 -245 311 -249
304 -1 -2 -13 -19 -26 -38 -20 -28 -21 -37 -11 -55 11 -22 163 -225 422 -566
228 -301 387 -516 394 -533 7 -20 -26 -35 -216 -92 -244 -73 -478 -116 -755
-136 -193 -15 -848 -6 -1090 15 -99 8 -236 20 -305 26 -208 18 -731 80 -1100
130 -205 28 -441 57 -730 90 -184 22 -559 60 -795 82 -195 18 -1106 18 -1270
0 -379 -42 -646 -98 -935 -197 -285 -98 -484 -196 -752 -372 -389 -254 -742
-634 -930 -1002 -13 -24 -27 -44 -33 -43 -7 1 -12 523 -15 1529 -4 1281 -7
1532 -19 1553 -10 17 -11 25 -2 28 6 2 11 8 11 13 0 11 -60 12 -77 1z m35 -32
c-1 -16 -5 -30 -10 -30 -5 0 -7 4 -4 9 4 5 1 11 -6 13 -6 2 -9 12 -5 21 10 28
26 19 25 -13z m8235 -500 c14 -27 24 -50 22 -50 -15 0 -70 68 -67 83 6 28 18
20 45 -33z m-16438 -30 c-3 -5 -16 -15 -28 -21 -22 -12 -22 -12 -3 10 19 21
43 30 31 11z m5480 -1044 c284 -36 435 -64 635 -117 219 -58 375 -115 605
-221 497 -230 923 -591 1210 -1023 126 -191 135 -217 79 -231 -23 -6 -40 7
-162 129 -291 289 -611 519 -972 696 -429 212 -832 333 -1375 416 -309 47
-501 58 -940 52 -523 -7 -843 -31 -1560 -117 -181 -22 -370 -45 -419 -50 -49
-6 -157 -19 -240 -30 -921 -120 -1803 -215 -2231 -239 -284 -17 -890 -34 -919
-27 -14 3 -26 12 -26 19 0 7 26 57 58 112 32 55 91 156 131 225 40 69 80 136
90 149 l19 24 203 -41 c489 -99 945 -113 1704 -52 338 27 423 37 1550 181 415
53 757 92 990 114 83 8 220 21 305 30 219 21 265 22 725 20 308 -2 442 -7 540
-19z m6680 -1 c259 -20 468 -41 670 -65 94 -12 208 -25 255 -31 47 -5 173 -21
280 -34 441 -55 840 -105 920 -114 47 -6 182 -21 300 -35 743 -86 1453 -100
1910 -36 97 13 157 25 307 61 68 16 129 29 137 29 14 0 65 -74 136 -200 23
-41 74 -128 112 -192 39 -64 67 -121 63 -127 -12 -21 -812 -8 -1159 19 -418
32 -841 78 -1561 170 -1834 234 -2180 265 -2825 257 -227 -3 -449 -12 -540
-21 -537 -52 -1008 -161 -1365 -316 -144 -63 -387 -183 -487 -241 -230 -133
-539 -374 -791 -615 -95 -92 -109 -100 -141 -88 -26 10 -19 30 47 135 171 275
427 559 687 760 266 207 604 389 930 500 299 102 784 188 1150 203 179 7 784
-4 965 -19z m-7015 -405 c266 -20 594 -76 860 -146 693 -183 1219 -465 1713
-916 162 -148 180 -173 148 -200 -25 -19 -45 -14 -86 22 -128 111 -595 374
-895 503 -512 220 -1123 368 -1695 409 -352 25 -1056 12 -1510 -28 -662 -58
-768 -70 -1565 -175 -41 -5 -111 -14 -155 -20 -44 -5 -125 -16 -180 -24 -112
-16 -430 -60 -545 -75 -70 -9 -522 -70 -670 -91 -36 -5 -121 -15 -190 -23 -69
-9 -271 -33 -450 -55 -179 -22 -471 -56 -650 -76 -179 -21 -328 -41 -331 -47
-8 -12 -79 1 -79 14 0 9 227 468 236 477 2 2 93 3 201 2 336 -3 890 22 1283
59 326 31 649 65 910 96 162 19 369 43 460 54 309 37 585 70 780 95 1057 133
1491 168 2015 159 143 -2 321 -8 395 -14z m7245 -5 c353 -24 541 -44 1430
-156 176 -22 408 -51 515 -65 107 -13 251 -31 320 -39 69 -8 179 -22 245 -30
869 -108 1749 -168 2220 -149 163 6 182 5 195 -11 24 -29 238 -470 231 -477
-6 -6 -250 15 -536 47 -77 9 -198 22 -270 30 -131 14 -534 61 -765 89 -106 13
-518 69 -885 121 -186 26 -549 75 -670 91 -66 8 -163 21 -215 29 -52 8 -153
21 -225 30 -71 8 -202 24 -290 35 -88 11 -203 24 -255 30 -52 6 -131 16 -175
21 -131 16 -587 57 -780 71 -237 17 -1201 17 -1376 0 -477 -45 -903 -140
-1339 -295 -126 -45 -159 -59 -285 -117 -292 -134 -530 -269 -738 -420 -66
-47 -125 -89 -132 -94 -16 -12 -65 18 -65 38 0 18 265 274 382 369 243 196
523 364 848 507 312 139 802 268 1205 319 396 50 906 59 1410 26z m4928 -339
c-8 -14 -11 -10 -21 20 l-11 38 20 -21 c16 -15 19 -25 12 -37z m-63 -36 c-20
-13 -43 -13 -35 0 3 6 16 10 28 10 18 0 19 -2 7 -10z m-12095 -45 c805 -57
1612 -301 2240 -678 199 -120 345 -222 345 -241 0 -18 -15 -36 -31 -36 -11 0
-68 24 -127 54 -108 54 -168 82 -232 106 -19 7 -39 17 -45 21 -5 3 -26 10 -45
14 -19 4 -39 11 -45 15 -34 25 -517 175 -710 220 -362 85 -637 125 -1180 172
-193 17 -1140 16 -1380 -1 -386 -27 -591 -43 -790 -62 -286 -27 -726 -74 -920
-99 -88 -12 -196 -25 -240 -30 -223 -27 -691 -95 -1135 -165 -124 -20 -268
-42 -320 -50 -139 -21 -777 -129 -980 -165 -96 -17 -211 -38 -255 -45 -44 -8
-120 -21 -170 -30 -49 -9 -112 -20 -140 -25 -45 -8 -241 -44 -368 -68 -35 -7
-50 -6 -53 2 -5 13 209 448 228 463 11 8 357 50 698 84 47 4 119 13 160 19 41
5 242 30 445 55 445 54 722 89 910 115 77 11 259 36 405 55 350 47 613 82 785
105 676 92 1427 170 1850 195 314 18 847 18 1100 0z m7140 0 c432 -22 1217
-104 1915 -200 58 -8 188 -25 290 -39 102 -14 302 -41 445 -61 143 -19 325
-44 405 -55 80 -10 228 -30 330 -44 102 -14 284 -37 405 -51 186 -22 554 -66
880 -105 200 -24 259 -30 390 -40 77 -5 166 -13 199 -16 l58 -6 73 -152 c91
-188 141 -296 149 -324 6 -19 3 -20 -31 -17 -21 1 -45 5 -53 8 -27 10 -224 47
-270 51 -25 2 -58 9 -73 15 -16 6 -40 11 -55 11 -15 0 -47 5 -72 11 -25 6 -67
14 -95 19 -27 5 -111 20 -185 34 -749 138 -2081 344 -2815 435 -1058 131
-1758 181 -2508 182 -648 0 -994 -28 -1507 -123 -325 -59 -701 -169 -1028
-299 -151 -60 -166 -66 -306 -136 -119 -59 -156 -63 -156 -19 0 20 24 41 130
113 142 96 147 99 265 168 116 67 485 247 590 288 669 258 1257 361 2080 365
149 1 396 -5 550 -13z m5299 -461 c5 -14 4 -15 -9 -4 -17 14 -19 20 -6 20 5 0
12 -7 15 -16z m-18634 -83 c0 -4 -10 -7 -22 -8 -11 -1 -24 -6 -27 -11 -3 -5
-21 -9 -39 -10 -26 -1 -32 3 -28 14 3 9 6 19 6 22 0 4 25 5 55 4 30 -2 55 -7
55 -11z m10560 -140 c0 -5 -13 -11 -30 -14 -16 -4 -49 -15 -72 -25 -24 -10
-56 -24 -73 -30 -16 -6 -66 -24 -110 -40 -44 -17 -89 -34 -100 -38 -28 -10
-55 -15 -55 -9 0 9 172 85 194 85 12 0 26 4 32 9 6 7 169 61 212 70 1 1 2 -3
2 -8z m-2359 -74 c-13 -13 -26 -3 -16 12 3 6 11 8 17 5 6 -4 6 -10 -1 -17z
m55 -14 c8 -11 13 -13 14 -5 0 10 4 10 20 0 11 -7 20 -20 19 -28 0 -10 -2 -11
-6 -2 -2 6 -15 12 -27 12 -13 0 -31 9 -41 20 -12 14 -14 20 -5 20 7 0 19 -8
26 -17z m454 -17 c0 -11 -19 -15 -25 -6 -3 5 1 10 9 10 9 0 16 -2 16 -4z m20
-26 c0 -5 -4 -10 -10 -10 -5 0 -10 5 -10 10 0 6 5 10 10 10 6 0 10 -4 10 -10z
m1005 -10 c3 -5 2 -10 -4 -10 -6 0 -8 -7 -5 -15 8 -21 -42 -43 -59 -26 -9 10
-6 18 18 37 33 27 41 29 50 14z m350 -40 c-3 -5 -10 -10 -16 -10 -5 0 -9 5 -9
10 0 6 7 10 16 10 8 0 12 -4 9 -10z m-69 -35 c-27 -21 -53 -20 -36 0 7 8 22
15 34 15 21 -1 21 -1 2 -15z m-56 -21 c0 -10 -6 -14 -15 -10 -8 3 -15 1 -15
-4 0 -6 -6 -10 -13 -10 -7 0 -18 -9 -25 -20 -7 -11 -20 -20 -30 -20 -10 0 -27
-7 -38 -15 -26 -19 -31 -19 -45 6 -12 23 -4 37 27 44 10 2 34 8 52 14 17 5 32
7 32 3 0 -4 5 1 11 11 13 22 59 23 59 1z m-10060 -164 c0 -5 -8 -10 -17 -10
-15 0 -16 2 -3 10 19 12 20 12 20 0z m-140 -35 c0 -17 -42 -17 -57 0 -4 4 -2
5 5 1 6 -4 12 -2 12 3 0 6 9 11 20 11 11 0 20 -7 20 -15z"/>
<path d="M14510 11916 c0 -2 8 -10 18 -17 15 -13 16 -12 3 4 -13 16 -21 21
-21 13z"/>
<path d="M11930 11724 c-170 -79 -271 -329 -282 -704 l-3 -94 65 -18 c221 -61
515 -80 636 -41 191 62 276 232 183 368 -19 27 -79 75 -94 75 -14 0 -2 -24 24
-50 32 -33 52 -83 23 -58 -20 17 -90 58 -99 58 -3 0 12 -13 34 -29 110 -80 88
-198 -50 -265 -45 -22 -63 -35 -53 -39 8 -3 18 -2 21 4 7 11 25 3 25 -12 0 -5
-6 -9 -13 -9 -6 0 -34 -12 -61 -26 -32 -17 -56 -24 -72 -20 -14 4 -24 2 -24
-4 0 -5 -10 -10 -22 -10 -17 0 -19 3 -10 9 8 5 -14 8 -56 8 -42 0 -95 9 -133
21 -35 11 -86 24 -114 27 -49 7 -75 20 -75 35 0 5 12 4 28 0 40 -13 226 -34
243 -27 8 3 1 6 -16 6 -37 1 -228 38 -272 52 -29 9 -33 15 -33 47 0 59 38 302
56 362 53 176 151 280 264 280 63 0 88 -14 120 -66 36 -57 25 -141 -35 -260
-26 -52 -45 -97 -41 -101 3 -3 32 0 63 8 32 8 93 14 137 13 72 -1 76 0 52 13
-24 13 -52 13 -160 0 -36 -4 -41 26 -13 84 14 30 29 67 32 82 4 15 11 30 17
33 5 3 6 15 2 26 -4 15 -2 19 7 16 18 -6 23 -71 10 -111 -9 -28 -9 -30 3 -14
24 31 39 138 27 185 -39 144 -199 212 -341 146z m227 -41 c17 -16 34 -39 38
-53 7 -24 6 -24 -26 7 -19 18 -45 42 -58 53 -22 18 -23 20 -4 20 11 0 33 -12
50 -27z m-197 8 c0 -5 -10 -13 -22 -17 -13 -3 -47 -32 -75 -63 -29 -31 -53
-53 -53 -49 0 15 84 104 114 120 37 21 36 20 36 9z m264 -106 c3 -8 1 -15 -4
-15 -6 0 -10 7 -10 15 0 8 2 15 4 15 2 0 6 -7 10 -15z"/>
<path d="M3880 11376 c0 -2 7 -7 16 -10 8 -3 12 -2 9 4 -6 10 -25 14 -25 6z"/>
<path d="M12397 11315 c3 -8 9 -12 14 -9 12 7 11 11 -5 17 -10 4 -13 1 -9 -8z"/>
<path d="M10190 8456 c0 -2 7 -7 16 -10 8 -3 12 -2 9 4 -6 10 -25 14 -25 6z"/>
<path d="M9282 7150 c-216 -57 -379 -219 -428 -426 -23 -97 -15 -256 18 -344
52 -142 155 -254 292 -319 133 -63 255 -82 397 -61 300 43 504 253 525 541 21
288 -171 547 -456 613 -92 22 -256 20 -348 -4z m341 -238 c76 -38 129 -92 166
-171 23 -49 26 -68 26 -161 0 -95 -3 -111 -28 -162 -47 -95 -136 -169 -232
-192 -58 -15 -170 -7 -228 14 -267 100 -302 494 -58 655 60 40 123 55 213 52
62 -3 89 -10 141 -35z"/>
<path d="M2360 6580 l0 -570 420 0 420 0 0 105 0 105 -285 0 -285 0 0 465 0
465 -135 0 -135 0 0 -570z"/>
<path d="M3660 6580 l0 -570 130 0 130 0 0 570 0 570 -130 0 -130 0 0 -570z"/>
<path d="M4500 6580 l0 -570 440 0 440 0 0 105 0 105 -310 0 -310 0 0 135 0
135 265 0 265 0 0 100 0 100 -265 0 -265 0 0 125 0 125 300 0 300 0 0 105 0
105 -430 0 -430 0 0 -570z"/>
<path d="M5900 6580 l0 -570 130 0 130 0 2 344 3 344 280 -342 281 -341 107
-3 107 -3 0 571 0 570 -125 0 -125 0 0 -340 c0 -187 -3 -340 -7 -340 -5 0
-133 153 -287 340 l-278 340 -109 0 -109 0 0 -570z"/>
<path d="M7460 7045 l0 -105 307 -2 306 -3 -311 -375 -312 -375 0 -87 0 -88
500 0 500 0 0 105 0 105 -325 0 c-179 0 -325 3 -325 6 0 3 140 174 310 379
l310 375 0 85 0 85 -480 0 -480 0 0 -105z"/>
<path d="M11360 6579 l0 -571 328 4 c361 5 382 8 521 73 96 46 199 146 241
237 109 234 58 525 -119 678 -62 55 -190 117 -276 135 -53 11 -147 15 -382 15
l-313 0 0 -571z m598 351 c113 -21 205 -89 252 -185 22 -44 25 -63 25 -160 0
-124 -18 -181 -78 -244 -86 -90 -157 -111 -374 -111 l-163 0 0 355 0 355 144
0 c79 0 166 -4 194 -10z"/>
<path d="M13010 6580 l0 -570 445 0 445 0 0 105 0 105 -310 0 -310 0 0 135 0
135 265 0 265 0 0 100 0 100 -265 0 -265 0 0 125 0 125 300 0 300 0 0 105 0
105 -435 0 -435 0 0 -570z"/>
<path d="M15261 6618 c127 -293 237 -550 246 -571 l15 -38 131 3 131 3 243
560 c134 308 243 563 243 568 0 4 -57 7 -128 7 l-127 0 -175 -405 c-96 -222
-177 -401 -181 -397 -3 4 -82 186 -175 405 l-169 397 -142 0 -141 0 229 -532z"/>
<path d="M16680 6580 l0 -570 130 0 130 0 0 570 0 570 -130 0 -130 0 0 -570z"/>
<path d="M17520 6579 l0 -571 328 4 c363 5 385 8 522 75 137 66 245 202 281
353 19 79 16 232 -5 305 -45 152 -142 268 -281 335 -130 64 -176 70 -532 70
l-313 0 0 -571z m602 350 c164 -35 264 -150 275 -318 12 -165 -55 -283 -197
-350 -52 -25 -66 -26 -237 -29 l-183 -4 0 356 0 356 145 0 c79 0 168 -5 197
-11z"/>
<path d="M19498 7118 c-42 -89 -488 -1096 -488 -1101 0 -4 60 -7 133 -7 l132
0 50 123 50 122 266 3 266 2 51 -122 50 -123 136 -3 c75 -1 136 1 136 4 0 4
-113 261 -252 571 l-252 563 -131 0 -131 0 -16 -32z m236 -442 c48 -115 85
-210 83 -212 -2 -3 -83 -3 -179 -2 l-175 3 78 190 c97 234 99 238 103 234 2
-2 43 -98 90 -213z"/>
</g>
</svg>
